<?xml version="1.0" encoding="UTF-8"?>
<svg xmlns="http://www.w3.org/2000/svg" xmlns:xlink="http://www.w3.org/1999/xlink" width="32px" height="32px" viewBox="0 0 32 32" version="1.1">
<g id="surface1">
<path style=" stroke:none;fill-rule:nonzero;fill:rgb(0%,0%,0%);fill-opacity:1;" d="M 16 16 L 20 16 L 20 20 L 16 20 Z M 16 16 "/>
<path style=" stroke:none;fill-rule:nonzero;fill:rgb(0%,0%,0%);fill-opacity:1;" d="M 12 16 L 12 12 L 16 12 L 16 16 Z M 12 16 "/>
<path style=" stroke:none;fill-rule:nonzero;fill:rgb(0%,0%,0%);fill-opacity:1;" d="M 12 16 L 12 20 L 8 20 L 8 16 Z M 12 16 "/>
<path style=" stroke:none;fill-rule:nonzero;fill:rgb(0%,0%,0%);fill-opacity:1;" d="M 24 8 L 20 8 L 20 12 L 24 12 Z M 24 8 "/>
<path style=" stroke:none;fill-rule:evenodd;fill:rgb(0%,0%,0%);fill-opacity:1;" d="M 0 0 L 0 32 L 32 32 L 32 0 Z M 28 28 L 20 28 L 20 24 L 24 24 L 24 20 L 28 20 Z M 20 20 L 24 20 L 24 16 L 28 16 L 28 4 L 4 4 L 4 20 L 8 20 L 8 24 L 4 24 L 4 28 L 16 28 L 16 24 L 20 24 Z M 20 20 "/>
</g>
</svg>
